<?xml version="1.0" encoding="utf-8"?>
<!-- Generator: Adobe Illustrator 25.0.0, SVG Export Plug-In . SVG Version: 6.00 Build 0)  -->
<svg version="1.1" id="Layer_1" xmlns="http://www.w3.org/2000/svg" xmlns:xlink="http://www.w3.org/1999/xlink" x="0px" y="0px"
	 viewBox="0 0 200 70" style="enable-background:new 0 0 200 70;" xml:space="preserve">
<style type="text/css">
	.st0{fill:#0066CD;}
</style>
<g>
	<path class="st0" d="M21.3,46.3c-6.3,0-10.9-5-10.9-11.5c0-6.6,4.7-11,10.9-11h5.5c6.5,0,11,4.5,11,11c0,6.5-4.6,11.5-11,11.5H21.3
		z M26.8,42.3c4.2,0,7.1-3.1,7.1-7.4s-2.9-7.3-7.1-7.3h-5.5c-4,0-7,3-7,7.3c0,4.2,2.9,7.4,7,7.4H26.8z"/>
	<path class="st0" d="M41,46.3v-3.9h16.9c2.1,0,3.3-1.2,3.3-2.9c0-1.9-1.2-2.9-3.3-2.9H47.6c-4.2,0-6.9-2.7-6.9-6.4
		c0-3.6,2.4-6.3,6.9-6.3h16.2v3.9H47.6c-1.8,0-2.9,1.1-2.9,2.8c0,1.7,1.1,2.7,2.8,2.7h10.3c4.6,0,7,2.1,7,6.5c0,3.8-2.3,6.6-7,6.6
		H41z"/>
	<path class="st0" d="M68.5,46.3V23.7h3.9v22.5H68.5z"/>
</g>
<g>
	<path d="M99.9,21.9c0,3.6-2.1,5.7-5.3,5.7c-3.2,0-5.1-2.4-5.1-5.5c0-3.2,2.1-5.7,5.3-5.7C98.1,16.4,99.9,18.9,99.9,21.9z M92.1,22
		c0,2.1,1,3.6,2.6,3.6c1.6,0,2.6-1.6,2.6-3.7c0-2-0.9-3.6-2.6-3.6C93.1,18.3,92.1,19.9,92.1,22z"/>
	<path d="M101.5,16.7c0.6-0.1,1.9-0.2,3.2-0.2c1.5,0,2.4,0.1,3.2,0.6c0.8,0.4,1.3,1.1,1.3,2.1c0,0.9-0.6,1.8-1.8,2.3v0
		c1.2,0.3,2.1,1.3,2.1,2.6c0,1-0.4,1.8-1.1,2.3c-0.8,0.6-2.1,1-4.2,1c-1.2,0-2.1-0.1-2.6-0.2V16.7z M103.9,20.8h0.8
		c1.3,0,2-0.5,2-1.3c0-0.8-0.6-1.2-1.7-1.2c-0.5,0-0.8,0-1,0.1V20.8z M103.9,25.6c0.2,0,0.5,0,0.9,0c1.1,0,2.1-0.4,2.1-1.6
		c0-1.1-1-1.5-2.2-1.5h-0.8V25.6z"/>
	<path d="M113.3,16.6h2.4v6.8c0,3.1-1.5,4.1-3.8,4.1c-0.6,0-1.3-0.1-1.8-0.3l0.3-2c0.3,0.1,0.8,0.2,1.2,0.2c1,0,1.7-0.5,1.7-2.1
		V16.6z"/>
	<path d="M124.1,22.8h-4v2.6h4.4v2h-6.9V16.6h6.6v2h-4.2v2.2h4V22.8z"/>
	<path d="M126.3,16.7c0.9-0.1,2.1-0.2,3.3-0.2c2.1,0,3.4,0.4,4.4,1.2c1.1,0.8,1.8,2.2,1.8,4.1c0,2.1-0.8,3.5-1.8,4.4
		c-1.1,0.9-2.9,1.4-5,1.4c-1.3,0-2.2-0.1-2.8-0.2V16.7z M128.7,25.5c0.2,0,0.6,0,0.8,0c2.2,0,3.7-1.2,3.7-3.8c0-2.2-1.3-3.4-3.4-3.4
		c-0.5,0-0.9,0-1.1,0.1V25.5z"/>
	<path d="M139.9,16.6v10.8h-2.4V16.6H139.9z"/>
	<path d="M142,27.4V16.6h2.8l2.2,4c0.6,1.1,1.3,2.5,1.8,3.7h0c-0.1-1.4-0.2-2.9-0.2-4.5v-3.1h2.2v10.8h-2.6l-2.3-4.2
		c-0.6-1.2-1.4-2.5-1.9-3.8h-0.1c0.1,1.4,0.1,3,0.1,4.7v3.2H142z"/>
	<path d="M155.1,16.6h2.4v6.8c0,3.1-1.5,4.1-3.8,4.1c-0.6,0-1.3-0.1-1.8-0.3l0.3-2c0.3,0.1,0.8,0.2,1.2,0.2c1,0,1.7-0.5,1.7-2.1
		V16.6z"/>
	<path d="M166,22.8h-4v2.6h4.4v2h-6.9V16.6h6.6v2H162v2.2h4V22.8z"/>
	<path d="M168.1,27.4V16.6h2.8l2.2,4c0.6,1.1,1.3,2.5,1.8,3.7h0c-0.1-1.4-0.2-2.9-0.2-4.5v-3.1h2.2v10.8h-2.6l-2.3-4.2
		c-0.6-1.2-1.4-2.5-1.9-3.8h-0.1c0.1,1.4,0.1,3,0.1,4.7v3.2H168.1z"/>
	<path d="M181.7,24.6l-0.8,2.8h-2.5l3.3-10.8h3.2l3.4,10.8h-2.6l-0.8-2.8H181.7z M184.4,22.8l-0.7-2.3c-0.2-0.6-0.4-1.4-0.5-2.1h0
		c-0.2,0.6-0.3,1.5-0.5,2.1l-0.6,2.3H184.4z"/>
	<path d="M90.3,39.4c0.8,0.4,2,0.8,3.2,0.8c1.3,0,2-0.6,2-1.4c0-0.8-0.6-1.3-2.1-1.8c-2.1-0.8-3.5-1.9-3.5-3.8
		c0-2.2,1.8-3.8,4.8-3.8c1.5,0,2.5,0.3,3.3,0.6l-0.6,2.3c-0.5-0.2-1.4-0.6-2.7-0.6c-1.3,0-1.9,0.6-1.9,1.2c0,0.8,0.7,1.2,2.4,1.8
		c2.3,0.8,3.3,2,3.3,3.8c0,2.1-1.6,4-5.1,4c-1.5,0-2.9-0.4-3.6-0.8L90.3,39.4z"/>
	<path d="M108.1,36.9h-4.7v3h5.3v2.4h-8.1V29.6h7.9v2.4h-5v2.7h4.7V36.9z"/>
	<path d="M110.6,29.7c0.9-0.2,2.3-0.3,3.9-0.3c1.9,0,3.2,0.3,4.1,1c0.8,0.6,1.2,1.5,1.2,2.7c0,1.6-1.2,2.7-2.3,3.1v0.1
		c0.9,0.4,1.4,1.2,1.7,2.4c0.4,1.5,0.8,3.1,1,3.6h-3c-0.2-0.4-0.5-1.4-0.9-3c-0.4-1.6-0.9-2-2.1-2.1h-0.9v5h-2.9V29.7z M113.5,35.2
		h1.1c1.4,0,2.3-0.7,2.3-1.8c0-1.2-0.8-1.8-2.1-1.8c-0.7,0-1.1,0-1.3,0.1V35.2z"/>
	<path d="M124.8,42.4l-4.1-12.8h3.2l1.6,5.4c0.4,1.5,0.8,3,1.1,4.6h0.1c0.3-1.5,0.7-3.1,1.2-4.5l1.6-5.5h3.1l-4.3,12.8H124.8z"/>
	<path d="M141.4,36.9h-4.7v3h5.3v2.4h-8.2V29.6h7.9v2.4h-5v2.7h4.7V36.9z"/>
	<path d="M144,29.7c0.9-0.2,2.3-0.3,3.9-0.3c1.9,0,3.2,0.3,4.1,1c0.8,0.6,1.2,1.5,1.2,2.7c0,1.6-1.2,2.7-2.3,3.1v0.1
		c0.9,0.4,1.4,1.2,1.7,2.4c0.4,1.5,0.8,3.1,1,3.6h-3c-0.2-0.4-0.5-1.4-0.9-3c-0.4-1.6-0.9-2-2.1-2.1h-0.9v5H144V29.7z M146.8,35.2
		h1.1c1.4,0,2.3-0.7,2.3-1.8c0-1.2-0.8-1.8-2.1-1.8c-0.7,0-1.1,0-1.3,0.1V35.2z"/>
	<path d="M155.3,39.4c0.8,0.4,2,0.8,3.2,0.8c1.3,0,2-0.6,2-1.4c0-0.8-0.6-1.3-2.1-1.8c-2.1-0.8-3.5-1.9-3.5-3.8
		c0-2.2,1.8-3.8,4.8-3.8c1.5,0,2.5,0.3,3.3,0.6l-0.6,2.3c-0.5-0.2-1.4-0.6-2.7-0.6c-1.3,0-1.9,0.6-1.9,1.2c0,0.8,0.7,1.2,2.4,1.8
		c2.3,0.8,3.3,2,3.3,3.8c0,2.1-1.6,4-5.1,4c-1.5,0-2.9-0.4-3.6-0.8L155.3,39.4z"/>
	<path d="M165.5,29.6h2.9v5.7h0c0.3-0.5,0.6-0.9,0.9-1.4l2.9-4.3h3.6l-4.2,5.5l4.4,7.4h-3.4l-3.2-5.5l-1.1,1.3v4.2h-2.9V29.6z"/>
	<path d="M180.4,39.1l-0.9,3.3h-3l3.9-12.8h3.8l4,12.8H185l-1-3.3H180.4z M183.6,36.9l-0.8-2.7c-0.2-0.8-0.5-1.7-0.6-2.5h0
		c-0.2,0.8-0.4,1.7-0.6,2.5l-0.8,2.7H183.6z"/>
	<path d="M92,44.3v8.1h-1.8v-8.1H92z"/>
	<path d="M93.6,52.4v-8.1h2.1l1.7,3c0.5,0.9,0.9,1.9,1.3,2.8h0c-0.1-1.1-0.1-2.2-0.1-3.4v-2.4h1.7v8.1h-1.9l-1.7-3.1
		c-0.5-0.9-1-1.9-1.4-2.9h0c0.1,1.1,0.1,2.2,0.1,3.5v2.4H93.6z"/>
	<path d="M101.9,44.3h4.9v1.5h-3.1v1.8h2.9v1.5h-2.9v3.2h-1.8V44.3z"/>
	<path d="M108.2,44.4c0.6-0.1,1.5-0.2,2.4-0.2c1.2,0,2,0.2,2.6,0.6c0.5,0.4,0.8,1,0.8,1.7c0,1-0.7,1.7-1.4,2v0
		c0.6,0.2,0.9,0.8,1.1,1.5c0.3,0.9,0.5,2,0.6,2.3h-1.9c-0.1-0.2-0.3-0.9-0.6-1.9c-0.2-1-0.6-1.3-1.3-1.3H110v3.2h-1.8V44.4z
		 M110,47.9h0.7c0.9,0,1.5-0.5,1.5-1.2c0-0.7-0.5-1.1-1.3-1.1c-0.4,0-0.7,0-0.8,0.1V47.9z"/>
	<path d="M117.3,50.3l-0.6,2.1h-1.9l2.5-8.1h2.4l2.5,8.1h-2l-0.6-2.1H117.3z M119.4,48.9l-0.5-1.7c-0.1-0.5-0.3-1.1-0.4-1.6h0
		c-0.1,0.5-0.2,1.1-0.4,1.6l-0.5,1.7H119.4z"/>
	<path d="M123.4,50.5c0.5,0.3,1.2,0.5,2,0.5c0.8,0,1.3-0.3,1.3-0.9c0-0.5-0.4-0.8-1.4-1.1c-1.3-0.5-2.2-1.2-2.2-2.4
		c0-1.4,1.2-2.4,3.1-2.4c0.9,0,1.6,0.2,2.1,0.4l-0.4,1.5c-0.3-0.2-0.9-0.4-1.7-0.4c-0.8,0-1.2,0.4-1.2,0.8c0,0.5,0.4,0.7,1.5,1.1
		c1.4,0.5,2.1,1.3,2.1,2.4c0,1.4-1,2.5-3.2,2.5c-0.9,0-1.8-0.3-2.3-0.5L123.4,50.5z"/>
	<path d="M131.4,45.8h-2.2v-1.5h6.2v1.5h-2.2v6.5h-1.8V45.8z"/>
	<path d="M136.4,44.4c0.6-0.1,1.5-0.2,2.4-0.2c1.2,0,2,0.2,2.6,0.6c0.5,0.4,0.8,1,0.8,1.7c0,1-0.7,1.7-1.4,2v0
		c0.6,0.2,0.9,0.8,1.1,1.5c0.3,0.9,0.5,2,0.6,2.3h-1.9c-0.1-0.2-0.3-0.9-0.6-1.9c-0.2-1-0.6-1.3-1.3-1.3h-0.5v3.2h-1.8V44.4z
		 M138.2,47.9h0.7c0.9,0,1.5-0.5,1.5-1.2c0-0.7-0.5-1.1-1.3-1.1c-0.4,0-0.7,0-0.8,0.1V47.9z"/>
	<path d="M145.3,44.3v4.6c0,1.4,0.5,2.1,1.5,2.1c1,0,1.5-0.7,1.5-2.1v-4.6h1.8v4.5c0,2.5-1.3,3.7-3.4,3.7c-2,0-3.2-1.1-3.2-3.7v-4.5
		H145.3z"/>
	<path d="M151.6,44.3h1.8v3.6h0c0.2-0.3,0.4-0.6,0.6-0.9l1.8-2.7h2.3l-2.7,3.4l2.8,4.6h-2.1l-2-3.5l-0.7,0.9v2.6h-1.8V44.3z"/>
	<path d="M160.6,45.8h-2.2v-1.5h6.2v1.5h-2.2v6.5h-1.8V45.8z"/>
	<path d="M167.5,44.3v4.6c0,1.4,0.5,2.1,1.5,2.1c1,0,1.5-0.7,1.5-2.1v-4.6h1.8v4.5c0,2.5-1.3,3.7-3.4,3.7c-2,0-3.2-1.1-3.2-3.7v-4.5
		H167.5z"/>
	<path d="M173.8,44.4c0.6-0.1,1.5-0.2,2.4-0.2c1.2,0,2,0.2,2.6,0.6c0.5,0.4,0.8,1,0.8,1.7c0,1-0.7,1.7-1.4,2v0
		c0.6,0.2,0.9,0.8,1.1,1.5c0.3,0.9,0.5,2,0.6,2.3h-1.9c-0.1-0.2-0.3-0.9-0.6-1.9c-0.2-1-0.6-1.3-1.3-1.3h-0.5v3.2h-1.8V44.4z
		 M175.6,47.9h0.7c0.9,0,1.5-0.5,1.5-1.2c0-0.7-0.5-1.1-1.3-1.1c-0.4,0-0.7,0-0.8,0.1V47.9z"/>
	<path d="M182.9,50.3l-0.6,2.1h-1.9l2.5-8.1h2.4l2.5,8.1h-2l-0.6-2.1H182.9z M185,48.9l-0.5-1.7c-0.1-0.5-0.3-1.1-0.4-1.6h0
		c-0.1,0.5-0.2,1.1-0.4,1.6l-0.5,1.7H185z"/>
</g>
</svg>
