<?xml version="1.0" encoding="utf-8"?>
<!-- Generator: Adobe Illustrator 25.0.0, SVG Export Plug-In . SVG Version: 6.00 Build 0)  -->
<svg version="1.1" id="Layer_1" xmlns="http://www.w3.org/2000/svg" xmlns:xlink="http://www.w3.org/1999/xlink" x="0px" y="0px"
	 viewBox="0 0 1380 396" style="enable-background:new 0 0 1380 396;" xml:space="preserve">
<style type="text/css">
	.st0{fill:#FFFFFF;}
</style>
<path class="st0" d="M282.8,122v17.9h-5.5V92.6h13c5.1,0,9,1.2,11.8,3.7s4.2,5.9,4.2,10.4s-1.5,8.2-4.6,11
	c-3.1,2.9-7.3,4.3-12.5,4.3H282.8z M282.8,97.6V117h5.8c3.8,0,6.7-0.9,8.8-2.6c2-1.7,3-4.2,3-7.4c0-6.2-3.7-9.4-11.1-9.4H282.8z"/>
<path class="st0" d="M334.1,140.7c-6.7,0-12.1-2.2-16.1-6.6c-4-4.4-6-10.2-6-17.2c0-7.6,2.1-13.7,6.2-18.2s9.7-6.8,16.8-6.8
	c6.5,0,11.8,2.2,15.8,6.6s6,10.1,6,17.2c0,7.7-2,13.8-6.1,18.3S341,140.7,334.1,140.7z M334.5,96.9c-5,0-9,1.8-12.1,5.4
	s-4.6,8.3-4.6,14.1s1.5,10.5,4.5,14.1c3,3.5,7,5.3,11.8,5.3c5.2,0,9.3-1.7,12.3-5.1c3-3.4,4.5-8.1,4.5-14.2c0-6.2-1.5-11.1-4.4-14.5
	S339.6,96.9,334.5,96.9z"/>
<path class="st0" d="M363.7,138v-6.5c0.7,0.7,1.6,1.3,2.7,1.8c1,0.5,2.1,1,3.3,1.3c1.2,0.4,2.3,0.6,3.5,0.8s2.2,0.3,3.2,0.3
	c3.4,0,5.9-0.6,7.6-1.9c1.7-1.3,2.5-3.1,2.5-5.5c0-1.3-0.3-2.4-0.8-3.3c-0.6-0.9-1.3-1.8-2.3-2.6c-1-0.8-2.2-1.5-3.5-2.2
	c-1.4-0.7-2.8-1.5-4.4-2.3s-3.2-1.7-4.6-2.5c-1.4-0.9-2.7-1.8-3.7-2.8c-1.1-1-1.9-2.2-2.5-3.5s-0.9-2.8-0.9-4.6c0-2.2,0.5-4,1.4-5.6
	s2.2-2.9,3.7-3.9s3.3-1.8,5.3-2.3s4-0.8,6-0.8c4.7,0,8.1,0.6,10.2,1.7v6.2c-2.8-1.9-6.4-2.9-10.7-2.9c-1.2,0-2.4,0.1-3.6,0.4
	s-2.3,0.7-3.2,1.2c-0.9,0.6-1.7,1.3-2.3,2.2c-0.6,0.9-0.9,2-0.9,3.3c0,1.2,0.2,2.3,0.7,3.1c0.5,0.9,1.1,1.7,2,2.4
	c0.9,0.7,1.9,1.4,3.2,2.1c1.3,0.7,2.7,1.4,4.4,2.2c1.7,0.8,3.3,1.7,4.8,2.6s2.8,1.9,4,3.1c1.1,1.1,2,2.4,2.7,3.7
	c0.7,1.4,1,2.9,1,4.7c0,2.3-0.5,4.3-1.4,5.9s-2.1,2.9-3.7,3.9c-1.5,1-3.3,1.7-5.4,2.2c-2,0.5-4.2,0.7-6.4,0.7
	c-0.7,0-1.7-0.1-2.8-0.2c-1.1-0.1-2.2-0.3-3.4-0.5c-1.1-0.2-2.2-0.5-3.2-0.9C365.2,138.8,364.4,138.4,363.7,138z"/>
<path class="st0" d="M429.8,97.6h-13.6v42.3h-5.5V97.6H397v-5h32.8V97.6z"/>
<path class="st0" d="M442.7,139.9h-5.5V92.6h5.5V139.9z"/>
<path class="st0" d="M541.2,139.9h-6.8l-24.3-37.7c-0.6-0.9-1.1-1.9-1.5-3h-0.2c0.2,1,0.3,3.2,0.3,6.5v34.1h-5.5V92.6h7.2l23.7,37.1
	c1,1.5,1.6,2.6,1.9,3.2h0.1c-0.2-1.4-0.3-3.7-0.3-7V92.6h5.5v47.3H541.2z"/>
<path class="st0" d="M588.1,120.8c0,13.3-6,19.9-18,19.9c-11.5,0-17.2-6.4-17.2-19.1v-29h5.5v28.5c0,9.7,4.1,14.5,12.3,14.5
	c7.9,0,11.8-4.7,11.8-14v-29h5.5v28.2H588.1z"/>
<path class="st0" d="M627.9,97.6h-13.6v42.3h-5.5V97.6h-13.6v-5H628v5H627.9z"/>
<path class="st0" d="M651.2,140.7c-6.7,0-12.1-2.2-16.1-6.6c-4-4.4-6-10.2-6-17.2c0-7.6,2.1-13.7,6.2-18.2c4.1-4.5,9.7-6.8,16.8-6.8
	c6.5,0,11.8,2.2,15.8,6.6s6,10.1,6,17.2c0,7.7-2,13.8-6.1,18.3S658.1,140.7,651.2,140.7z M651.6,96.9c-5,0-9,1.8-12.1,5.4
	s-4.6,8.3-4.6,14.1s1.5,10.5,4.5,14.1c3,3.5,7,5.3,11.8,5.3c5.2,0,9.3-1.7,12.3-5.1c3-3.4,4.5-8.1,4.5-14.2c0-6.2-1.5-11.1-4.4-14.5
	S656.7,96.9,651.6,96.9z"/>
<path class="st0" d="M736.7,92.6l-17.5,47.3h-6.1L696,92.6h6.2l13.1,37.5c0.4,1.2,0.7,2.6,1,4.2h0.1c0.2-1.3,0.5-2.7,1.1-4.3
	l13.3-37.4L736.7,92.6L736.7,92.6z"/>
<path class="st0" d="M768,139.9h-24.5V92.6h5.5v42.3h19V139.9z"/>
<path class="st0" d="M813.8,139.9h-6.1l-5-13.2h-20l-4.7,13.2h-6.2l18.1-47.3h5.7L813.8,139.9z M800.8,121.7l-7.4-20.1
	c-0.2-0.7-0.5-1.7-0.7-3.2h-0.1c-0.2,1.3-0.5,2.4-0.8,3.2l-7.3,20.1H800.8z"/>
<path class="st0" d="M818.5,138v-6.5c0.7,0.7,1.6,1.3,2.7,1.8s2.1,1,3.3,1.3c1.2,0.4,2.3,0.6,3.5,0.8s2.2,0.3,3.2,0.3
	c3.4,0,5.9-0.6,7.6-1.9c1.7-1.3,2.5-3.1,2.5-5.5c0-1.3-0.3-2.4-0.8-3.3s-1.3-1.8-2.3-2.6c-1-0.8-2.2-1.5-3.5-2.2
	c-1.4-0.7-2.8-1.5-4.4-2.3c-1.6-0.8-3.2-1.7-4.6-2.5c-1.4-0.9-2.7-1.8-3.7-2.8c-1.1-1-1.9-2.2-2.5-3.5s-0.9-2.8-0.9-4.6
	c0-2.2,0.5-4,1.4-5.6s2.2-2.9,3.7-3.9s3.3-1.8,5.3-2.3s4-0.8,6-0.8c4.7,0,8.1,0.6,10.2,1.7v6.2c-2.8-1.9-6.4-2.9-10.7-2.9
	c-1.2,0-2.4,0.1-3.6,0.4c-1.2,0.3-2.3,0.7-3.2,1.2c-0.9,0.6-1.7,1.3-2.3,2.2c-0.6,0.9-0.9,2-0.9,3.3c0,1.2,0.2,2.3,0.7,3.1
	s1.1,1.7,2,2.4s2,1.4,3.2,2.1c1.3,0.7,2.7,1.4,4.4,2.2c1.7,0.8,3.3,1.7,4.8,2.6s2.8,1.9,4,3.1c1.1,1.1,2,2.4,2.7,3.7
	c0.7,1.4,1,2.9,1,4.7c0,2.3-0.5,4.3-1.4,5.9s-2.1,2.9-3.7,3.9s-3.3,1.7-5.4,2.2c-2,0.5-4.2,0.7-6.4,0.7c-0.7,0-1.7-0.1-2.8-0.2
	c-1.1-0.1-2.2-0.3-3.4-0.5c-1.1-0.2-2.2-0.5-3.2-0.9C820,138.8,819.2,138.4,818.5,138z"/>
<path class="st0" d="M894.7,139.9h-6.8l-24.3-37.7c-0.6-0.9-1.1-1.9-1.5-3h-0.2c0.2,1,0.3,3.2,0.3,6.5v34.1h-5.5V92.6h7.2l23.7,37.1
	c1,1.5,1.6,2.6,1.9,3.2h0.1c-0.2-1.4-0.3-3.7-0.3-7V92.6h5.5v47.3H894.7z"/>
<path class="st0" d="M912.6,139.9h-5.5V92.6h5.5V139.9z"/>
<path class="st0" d="M957.2,137.9c-3.5,1.8-7.8,2.8-13.1,2.8c-6.7,0-12.1-2.2-16.2-6.5c-4-4.3-6.1-10-6.1-17
	c0-7.6,2.3-13.7,6.8-18.3c4.5-4.7,10.3-7,17.3-7c4.5,0,8.2,0.6,11.1,1.9v5.9c-3.4-1.9-7.1-2.8-11.2-2.8c-5.4,0-9.8,1.8-13.2,5.4
	s-5.1,8.5-5.1,14.5c0,5.8,1.6,10.3,4.7,13.8c3.2,3.4,7.3,5.1,12.4,5.1c4.7,0,8.9-1.1,12.3-3.2v5.4H957.2z M953.6,77.4l-7.1,10.9
	h-4.4L935,77.4h3.8l5.4,7.5l5.4-7.5H953.6z"/>
<path class="st0" d="M999.8,139.9H992l-18.3-21.6c-0.7-0.8-1.1-1.4-1.3-1.6h-0.1V140h-5.5V92.6h5.5v22.2h0.1c0.3-0.5,0.7-1,1.3-1.6
	l17.7-20.6h6.9L978,115.3L999.8,139.9z"/>
<path class="st0" d="M1022.1,140.7c-6.7,0-12.1-2.2-16.1-6.6c-4-4.4-6-10.2-6-17.2c0-7.6,2.1-13.7,6.2-18.2
	c4.1-4.5,9.7-6.8,16.8-6.8c6.5,0,11.8,2.2,15.8,6.6s6,10.1,6,17.2c0,7.7-2,13.8-6.1,18.3S1029,140.7,1022.1,140.7z M1022.5,96.9
	c-5,0-9,1.8-12.1,5.4s-4.6,8.3-4.6,14.1s1.5,10.5,4.5,14.1c3,3.5,7,5.3,11.8,5.3c5.2,0,9.3-1.7,12.3-5.1c3-3.4,4.5-8.1,4.5-14.2
	c0-6.2-1.5-11.1-4.4-14.5S1027.6,96.9,1022.5,96.9z"/>
<path class="st0" d="M1102.1,139.9h-5.5v-31.7c0-2.5,0.2-5.6,0.5-9.2h-0.1c-0.5,2.1-1,3.7-1.4,4.6l-16.2,36.3h-2.7l-16.1-36.1
	c-0.5-1.1-0.9-2.7-1.4-4.8h-0.1c0.2,1.9,0.3,5,0.3,9.3v31.6h-5.3V92.6h7.3l14.5,33c1.1,2.5,1.8,4.4,2.2,5.7h0.2
	c0.9-2.6,1.7-4.5,2.3-5.8l14.8-32.8h6.9v47.2H1102.1z"/>
<path class="st0" d="M302.6,161.6h-13.3v41.3h-5.4v-41.3h-13.3v-4.9h32.1v4.9H302.6z"/>
<path class="st0" d="M334.4,202.9h-24.5v-46.2h23.5v4.9h-18V177H332v4.9h-16.7V198h19.1V202.9z"/>
<path class="st0" d="M378,202.9h-5.4v-21.1h-23.9v21.1h-5.4v-46.2h5.4V177h23.9v-20.3h5.4V202.9z"/>
<path class="st0" d="M427.4,202.9h-6.6L397,166.1c-0.6-0.9-1.1-1.9-1.5-2.9h-0.2c0.2,1,0.3,3.1,0.3,6.3v33.4h-5.4v-46.2h7l23.1,36.3
	c1,1.5,1.6,2.5,1.9,3.1h0.1c-0.2-1.3-0.3-3.6-0.3-6.8v-32.5h5.4V202.9z"/>
<path class="st0" d="M458.1,203.7c-6.6,0-11.8-2.2-15.7-6.5c-3.9-4.3-5.9-9.9-5.9-16.9c0-7.4,2-13.4,6-17.8c4-4.4,9.5-6.6,16.4-6.6
	c6.4,0,11.5,2.1,15.4,6.4c3.9,4.3,5.8,9.9,5.8,16.9c0,7.5-2,13.5-6,17.9S464.8,203.7,458.1,203.7z M458.5,160.8
	c-4.9,0-8.8,1.8-11.8,5.3s-4.5,8.1-4.5,13.8s1.5,10.3,4.4,13.7c3,3.5,6.8,5.2,11.6,5.2c5.1,0,9.1-1.7,12-5s4.4-7.9,4.4-13.9
	c0-6.1-1.4-10.8-4.3-14.1C467.4,162.5,463.5,160.8,458.5,160.8z"/>
<path class="st0" d="M513.2,202.9h-24v-46.2h5.4V198h18.6V202.9z"/>
<path class="st0" d="M536.7,203.7c-6.6,0-11.8-2.2-15.7-6.5s-5.9-9.9-5.9-16.9c0-7.4,2-13.4,6-17.8c4-4.4,9.5-6.6,16.4-6.6
	c6.4,0,11.5,2.1,15.4,6.4c3.9,4.3,5.8,9.9,5.8,16.9c0,7.5-2,13.5-6,17.9S543.4,203.7,536.7,203.7z M537.1,160.8
	c-4.9,0-8.8,1.8-11.8,5.3s-4.5,8.1-4.5,13.8s1.5,10.3,4.4,13.7c3,3.5,6.8,5.2,11.6,5.2c5.1,0,9.1-1.7,12-5s4.4-7.9,4.4-13.9
	c0-6.1-1.4-10.8-4.3-14.1C546,162.5,542.1,160.8,537.1,160.8z"/>
<path class="st0" d="M602.4,199.7c-4.6,2.6-9.8,3.9-15.5,3.9c-6.6,0-11.9-2.1-16-6.4c-4.1-4.3-6.1-9.9-6.1-16.9
	c0-7.2,2.3-13,6.8-17.6s10.3-6.9,17.2-6.9c5,0,9.2,0.8,12.7,2.4v6c-3.7-2.4-8.2-3.5-13.3-3.5c-5.2,0-9.4,1.8-12.7,5.3
	c-3.3,3.6-5,8.2-5,13.9c0,5.8,1.5,10.4,4.6,13.8c3.1,3.3,7.2,5,12.5,5c3.6,0,6.7-0.7,9.4-2.2v-13h-10.1v-4.9h15.5L602.4,199.7
	L602.4,199.7z"/>
<path class="st0" d="M618.5,202.9h-5.4v-46.2h5.4V202.9z"/>
<path class="st0" d="M642.5,186.3c0,5.5-1.2,9.7-3.5,12.8c-2.3,3-5.4,4.6-9.3,4.6c-1.8,0-3.3-0.3-4.4-0.8v-5.3
	c1.2,0.8,2.7,1.3,4.5,1.3c4.9,0,7.3-4.1,7.3-12.4v-29.7h5.4V186.3z"/>
<path class="st0" d="M672.9,203.7c-6.6,0-11.8-2.2-15.7-6.5s-5.9-9.9-5.9-16.9c0-7.4,2-13.4,6-17.8c4-4.4,9.5-6.6,16.4-6.6
	c6.4,0,11.5,2.1,15.4,6.4c3.9,4.3,5.8,9.9,5.8,16.9c0,7.5-2,13.5-6,17.9S679.6,203.7,672.9,203.7z M673.2,160.8
	c-4.9,0-8.8,1.8-11.8,5.3s-4.5,8.1-4.5,13.8s1.5,10.3,4.4,13.7c3,3.5,6.8,5.2,11.6,5.2c5.1,0,9.1-1.7,12-5s4.4-7.9,4.4-13.9
	c0-6.1-1.4-10.8-4.3-14.1C682.1,162.5,678.2,160.8,673.2,160.8z"/>
<path class="st0" d="M751.1,202.9h-5.4v-31c0-2.4,0.2-5.4,0.5-9H746c-0.5,2.1-1,3.6-1.4,4.5l-15.8,35.5h-2.6l-15.8-35.3
	c-0.5-1-0.9-2.6-1.4-4.7h-0.1c0.2,1.8,0.3,4.9,0.3,9.1v30.9H704v-46.2h7.2l14.2,32.2c1.1,2.5,1.8,4.3,2.1,5.5h0.2
	c0.9-2.5,1.7-4.4,2.2-5.7l14.5-32.1h6.8v46.3H751.1z"/>
<path class="st0" d="M815.7,156.7l-17.1,46.2h-6l-16.8-46.2h6l12.8,36.6c0.4,1.2,0.7,2.5,0.9,4.1h0.1c0.2-1.3,0.5-2.7,1.1-4.2
	l13.1-36.6L815.7,156.7L815.7,156.7z"/>
<path class="st0" d="M856.1,184.2c0,13-5.9,19.5-17.6,19.5c-11.2,0-16.8-6.2-16.8-18.7v-28.3h5.4v27.9c0,9.5,4,14.2,12,14.2
	c7.7,0,11.6-4.6,11.6-13.7v-28.4h5.4L856.1,184.2L856.1,184.2z"/>
<path class="st0" d="M899.8,202.9h-7.5l-17.9-21.1c-0.7-0.8-1.1-1.3-1.2-1.6h-0.1V203h-5.4v-46.2h5.4v21.7h0.1
	c0.3-0.5,0.7-1,1.2-1.6l17.3-20.1h6.7L878.6,179L899.8,202.9z"/>
<path class="st0" d="M941.7,202.9h-6l-4.9-13h-19.6l-4.6,13h-6l17.7-46.2h5.6L941.7,202.9z M929.1,185.1l-7.3-19.7
	c-0.2-0.6-0.5-1.7-0.7-3.1H921c-0.2,1.3-0.5,2.3-0.7,3.1l-7.2,19.7H929.1z"/>
<path class="st0" d="M972,202.9h-5.4v-46.2h5.4V202.9z"/>
<path class="st0" d="M1008.1,202.9h-24v-46.2h5.4V198h18.6V202.9z"/>
<path class="st0" d="M1020.6,202.9h-5.4v-46.2h5.4V202.9z"/>
<path class="st0" d="M1064.2,201c-3.4,1.8-7.7,2.7-12.8,2.7c-6.6,0-11.8-2.1-15.8-6.3s-5.9-9.8-5.9-16.7c0-7.4,2.2-13.4,6.7-17.9
	c4.4-4.6,10.1-6.8,16.9-6.8c4.4,0,8,0.6,10.9,1.9v5.8c-3.3-1.8-7-2.8-11-2.8c-5.3,0-9.6,1.8-12.9,5.3s-4.9,8.3-4.9,14.2
	c0,5.6,1.5,10.1,4.6,13.5c3.1,3.3,7.1,5,12.1,5c4.6,0,8.7-1,12.1-3.1L1064.2,201L1064.2,201z M1058.7,141.9l-8.4,10.6h-4.1l7.2-10.6
	H1058.7z"/>
<path class="st0" d="M1109.4,202.9h-6l-4.9-13h-19.6l-4.6,13h-6l17.7-46.2h5.6L1109.4,202.9z M1096.8,185.1l-7.3-19.7
	c-0.2-0.6-0.5-1.7-0.7-3.1h-0.1c-0.2,1.3-0.5,2.3-0.7,3.1l-7.2,19.7H1096.8z"/>
<path class="st0" d="M275.2,317.9v-39.2h9.8c6.5,0,11.5,1.6,14.8,4.9c3.4,3.2,5.1,8,5.1,14.2c0,6-1.8,10.8-5.5,14.6
	c-3.6,3.7-8.7,5.6-15.1,5.6h-9.1V317.9z M277.9,281.2v34.3h6.2c5.8,0,10.3-1.5,13.4-4.5s4.7-7.4,4.7-13.1c0-11.1-5.8-16.7-17.5-16.7
	L277.9,281.2L277.9,281.2z"/>
<path class="st0" d="M329,318.6c-5.5,0-10-1.8-13.2-5.5c-3.3-3.7-4.9-8.5-4.9-14.4c0-6.3,1.7-11.3,5.1-15c3.4-3.8,8-5.6,13.8-5.6
	c5.3,0,9.6,1.8,12.8,5.4c3.3,3.6,4.9,8.4,4.9,14.2c0,6.5-1.7,11.6-5,15.3C339.1,316.7,334.7,318.6,329,318.6z M329.3,280.5
	c-4.6,0-8.3,1.7-11.3,4.9c-2.9,3.3-4.4,7.6-4.4,13s1.4,9.7,4.2,12.9s6.5,4.8,11.2,4.8c4.8,0,8.7-1.6,11.5-4.7
	c2.8-3.2,4.2-7.6,4.2-13.2c0-5.5-1.4-9.9-4.1-13C337.8,282.1,334.1,280.5,329.3,280.5z"/>
<path class="st0" d="M383.3,317.9l-23.4-31.7c-0.5-0.6-0.9-1.3-1.3-1.9l-0.4-0.5h-0.1c0,0.5,0.1,1,0.1,1.7v32.4h-2.7v-39.2h2.1
	l23.2,31.4c0.5,0.7,1.1,1.5,1.7,2.5h0.1c-0.1-1.3-0.1-2.4-0.1-3.3v-30.7h2.7v39.2h-1.9V317.9z"/>
<path class="st0" d="M420.8,317.9l-4.5-12.2h-17l-4.5,12.2h-3l14.8-39.2h2.6l14.6,39.2H420.8z M408.8,285.1
	c-0.2-0.5-0.4-1.1-0.5-1.6s-0.3-0.9-0.4-1.4h-0.1c-0.3,1.2-0.6,2.2-0.9,2.9l-6.6,18.2h15.1L408.8,285.1z"/>
<path class="st0" d="M455.4,316.6c-3.2,1.3-6.5,2-9.9,2c-5.4,0-9.7-1.8-13.1-5.4s-5.1-8.3-5.1-14.1c0-6.4,1.8-11.5,5.5-15.3
	s8.3-5.8,14-5.8c3,0,5.9,0.5,8.6,1.4v2.9c-2.8-1.2-5.7-1.9-8.7-1.9c-4.9,0-8.9,1.7-12,5s-4.6,7.8-4.6,13.3c0,5.3,1.5,9.6,4.4,12.6
	c2.9,3.1,6.7,4.6,11.2,4.6c3.6,0,6.8-0.7,9.7-2.1V316.6z"/>
<path class="st0" d="M464.1,317.9v-39.2h2.7v39.2H464.1z"/>
<path class="st0" d="M485.2,304.4c0,9.5-3.3,14.2-9.8,14.2c-1,0-2-0.1-3-0.4v-2.6c1.1,0.4,2.1,0.5,3,0.5c2.5,0,4.3-1,5.4-2.9
	s1.7-4.9,1.7-8.9v-25.6h2.7L485.2,304.4L485.2,304.4z"/>
<path class="st0" d="M519.1,317.9l-4.5-12.2h-17l-4.5,12.2h-3l14.8-39.2h2.6l14.6,39.2H519.1z M507.1,285.1
	c-0.2-0.5-0.4-1.1-0.5-1.6s-0.3-0.9-0.4-1.4H506c-0.3,1.2-0.6,2.2-0.9,2.9l-6.6,18.2h15.1L507.1,285.1z"/>
<path class="st0" d="M560.2,318.6c-5.5,0-10-1.8-13.2-5.5c-3.3-3.7-4.9-8.5-4.9-14.4c0-6.3,1.7-11.3,5.1-15c3.4-3.8,8-5.6,13.8-5.6
	c5.3,0,9.6,1.8,12.8,5.4c3.3,3.6,4.9,8.4,4.9,14.2c0,6.5-1.7,11.6-5,15.3C570.3,316.7,565.9,318.6,560.2,318.6z M560.5,280.5
	c-4.6,0-8.3,1.7-11.3,4.9c-2.9,3.3-4.4,7.6-4.4,13s1.4,9.7,4.2,12.9s6.5,4.8,11.2,4.8c4.8,0,8.7-1.6,11.5-4.7
	c2.8-3.2,4.2-7.6,4.2-13.2c0-5.5-1.4-9.9-4.1-13C569,282.1,565.3,280.5,560.5,280.5z"/>
<path class="st0" d="M589.4,302.2v15.7h-2.7v-39.2h9.5c4,0,7.1,0.9,9.2,2.8c2.1,1.9,3.2,4.6,3.2,8.2s-1.2,6.6-3.6,9
	c-2.4,2.3-5.7,3.5-10,3.5H589.4z M589.4,281.2v18.5h5.6c3.5,0,6.2-0.8,8.1-2.5c1.8-1.7,2.8-4.1,2.8-7.2c0-5.9-3.4-8.8-10.1-8.8
	H589.4z"/>
<path class="st0" d="M616,316.5v-3.1c2.8,1.8,5.7,2.7,8.5,2.7c3.1,0,5.4-0.6,7-1.9s2.4-3,2.4-5.3c0-2-0.5-3.6-1.6-4.8
	c-1.1-1.2-3.4-2.8-6.9-4.9c-4-2.3-6.5-4.3-7.5-5.8c-1.1-1.6-1.6-3.4-1.6-5.4c0-2.8,1.1-5.1,3.2-7.1c2.2-1.9,5-2.9,8.6-2.9
	c2.3,0,4.7,0.4,7,1.2v2.8c-2.3-1-4.7-1.6-7.4-1.6s-4.8,0.7-6.3,2c-1.6,1.3-2.3,3.1-2.3,5.1s0.5,3.6,1.6,4.8c1.1,1.2,3.4,2.8,6.9,4.8
	c3.7,2.1,6.1,3.9,7.3,5.5s1.8,3.5,1.8,5.6c0,3-1,5.5-3.1,7.4s-5,2.8-8.8,2.8c-1.3,0-2.9-0.2-4.7-0.6
	C618.2,317.5,616.9,317.1,616,316.5z M627.6,275.1h-1.2l-6-9.2h2.4l4.3,6.6l4.4-6.6h2.2L627.6,275.1z"/>
<path class="st0" d="M655.7,281.2v36.7H653v-36.7h-11.3v-2.5H667v2.5H655.7z"/>
<path class="st0" d="M673.7,317.9v-39.2h2.7v39.2H673.7z"/>
<path class="st0" d="M714.2,317.9l-23.4-31.7c-0.5-0.6-0.9-1.3-1.3-1.9l-0.4-0.5H689c0,0.5,0.1,1,0.1,1.7v32.4h-2.7v-39.2h2.1
	l23.2,31.4c0.5,0.7,1.1,1.5,1.7,2.5h0.1c-0.1-1.3-0.1-2.4-0.1-3.3v-30.7h2.7v39.2h-1.9V317.9z"/>
<path class="st0" d="M726.1,317.9v-39.2h2.7v39.2H726.1z"/>
<path class="st0" d="M774.3,317.9l-5.2-11.5c-1.1-2.4-2.2-4-3.2-4.8c-1.1-0.8-2.4-1.2-4-1.2H757v17.5h-2.7v-39.2h10.9
	c3.5,0,6.2,0.9,8.2,2.8s3,4.3,3,7.4c0,2.8-0.8,5.2-2.4,7.1c-1.6,1.9-3.9,3.1-6.8,3.7v0.1c1.5,0.6,3.1,2.5,4.5,5.7l5.8,12.5h-3.2
	V317.9z M756.9,281.2V298h6.8c3,0,5.4-0.8,7.1-2.4c1.8-1.6,2.6-3.7,2.6-6.5c0-2.5-0.8-4.5-2.4-5.9c-1.6-1.4-3.9-2.1-6.8-2.1h-7.3
	V281.2z"/>
<path class="st0" d="M810.9,317.9l-4.5-12.2h-17l-4.5,12.2h-3l14.8-39.2h2.6l14.6,39.2H810.9z M798.8,285.1
	c-0.2-0.5-0.4-1.1-0.5-1.6s-0.3-0.9-0.4-1.4h-0.1c-0.3,1.2-0.6,2.2-0.9,2.9l-6.6,18.2h15.1L798.8,285.1z"/>
<path class="st0" d="M848.3,317.9l-23.4-31.7c-0.5-0.6-0.9-1.3-1.3-1.9l-0.4-0.5h-0.1c0,0.5,0.1,1,0.1,1.7v32.4h-2.7v-39.2h2.1
	l23.2,31.4c0.5,0.7,1.1,1.5,1.7,2.5h0.1c-0.1-1.3-0.1-2.4-0.1-3.3v-30.7h2.7v39.2h-1.9V317.9z"/>
<path class="st0" d="M860.3,317.9v-39.2h2.7v39.2H860.3z"/>
<path class="st0" d="M873,317.9v-39.2h2.7v36.8h15.7v2.5L873,317.9L873,317.9z"/>
<path class="st0" d="M924.2,302.2c0,10.9-4.6,16.4-13.9,16.4c-8.8,0-13.3-5.2-13.3-15.8v-24.1h2.7v23.8c0,9.1,3.7,13.6,11.1,13.6
	c7.2,0,10.7-4.4,10.7-13.3v-24.1h2.7V302.2z"/>
<path class="st0" d="M962.1,315.2c-4,2.3-8.2,3.4-12.5,3.4c-5.3,0-9.7-1.8-13-5.4s-4.9-8.4-4.9-14.3s1.8-10.9,5.3-14.9
	c3.6-4,8.3-6,14.2-6c3.4,0,6.8,0.7,10,2.1v3c-3.6-1.7-7-2.6-10.4-2.6c-4.9,0-8.9,1.7-11.9,5.1s-4.5,7.7-4.5,12.9
	c0,5.5,1.4,9.8,4.2,12.9s6.6,4.7,11.4,4.7c3.5,0,6.6-0.8,9.3-2.3v-12.9h-9.2v-2.5H962v16.8H962.1z"/>
<path class="st0" d="M984.1,317.9v-1.8c0-1.2,0.1-2.3,0.3-3.3s0.5-1.9,0.9-2.7s0.9-1.6,1.5-2.3c0.6-0.7,1.3-1.4,2.1-2.2
	c0.8-0.7,1.7-1.5,2.8-2.2c1-0.8,2.2-1.6,3.4-2.5s2.3-1.7,3.3-2.5s1.9-1.7,2.7-2.7s1.4-2,1.8-3.2c0.4-1.2,0.7-2.5,0.7-4
	c0-2.6-0.7-4.6-2.1-6c-1.4-1.4-3.4-2.1-6-2.1c-1.8,0-3.4,0.4-5.1,1.1c-1.6,0.8-3.2,1.8-4.8,3.2v-3c1.5-1.1,3.1-2.1,4.8-2.7
	c1.7-0.7,3.5-1,5.4-1c1.6,0,3,0.2,4.3,0.7s2.4,1.1,3.3,2s1.6,1.9,2.1,3.2c0.5,1.2,0.7,2.6,0.7,4.2c0,1.8-0.3,3.4-0.8,4.8
	s-1.2,2.7-2.1,3.8c-0.9,1.1-1.9,2.2-3.1,3.1c-1.2,1-2.5,1.9-3.8,2.9c-1.8,1.3-3.3,2.4-4.5,3.3c-1.2,1-2.2,1.9-3,2.9
	s-1.3,1.9-1.7,2.9c-0.3,1-0.5,2.1-0.5,3.4v0.4h19.5v2.3L984.1,317.9L984.1,317.9z"/>
<path class="st0" d="M1024.4,318.6c-3.6,0-6.4-1.7-8.5-5c-2-3.3-3.1-8.1-3.1-14.5c0-7,1.1-12.2,3.2-15.8c2.1-3.5,5.2-5.3,9.2-5.3
	c7.5,0,11.3,6.7,11.3,20.1c0,6.7-1.1,11.7-3.2,15.2C1031.2,316.8,1028.2,318.6,1024.4,318.6z M1025,280.3c-3,0-5.4,1.5-7,4.6
	c-1.7,3.1-2.5,7.7-2.5,13.9c0,5.6,0.8,9.9,2.4,12.9c1.6,3,3.9,4.5,6.8,4.5s5.2-1.5,6.8-4.6c1.6-3.1,2.4-7.5,2.4-13.2
	C1033.9,286.4,1031,280.3,1025,280.3z"/>
<path class="st0" d="M1041.8,317.9v-1.8c0-1.2,0.1-2.3,0.3-3.3c0.2-1,0.5-1.9,0.9-2.7s0.9-1.6,1.5-2.3c0.6-0.7,1.3-1.4,2.1-2.2
	c0.8-0.7,1.7-1.5,2.8-2.2c1-0.8,2.2-1.6,3.4-2.5c1.2-0.9,2.3-1.7,3.3-2.5s1.9-1.7,2.7-2.7c0.8-1,1.4-2,1.8-3.2s0.7-2.5,0.7-4
	c0-2.6-0.7-4.6-2.1-6s-3.4-2.1-6-2.1c-1.8,0-3.4,0.4-5.1,1.1c-1.6,0.8-3.2,1.8-4.8,3.2v-3c1.5-1.1,3.1-2.1,4.8-2.7
	c1.7-0.7,3.5-1,5.4-1c1.6,0,3,0.2,4.3,0.7s2.4,1.1,3.3,2s1.6,1.9,2.1,3.2c0.5,1.2,0.7,2.6,0.7,4.2c0,1.8-0.3,3.4-0.8,4.8
	s-1.2,2.7-2.1,3.8c-0.9,1.1-1.9,2.2-3.1,3.1c-1.2,1-2.5,1.9-3.8,2.9c-1.8,1.3-3.3,2.4-4.5,3.3c-1.2,1-2.2,1.9-3,2.9
	s-1.3,1.9-1.7,2.9c-0.3,1-0.5,2.1-0.5,3.4v0.4h19.5v2.3L1041.8,317.9L1041.8,317.9z"/>
<path class="st0" d="M1071.1,316.5v-2.9c3,1.8,5.8,2.7,8.4,2.7c3.2,0,5.6-0.8,7.4-2.4s2.7-3.7,2.7-6.3c0-2.9-1-5.1-3.1-6.6
	s-5-2.2-8.8-2.2h-3v-2.3h2.7c3.5,0,6.2-0.7,8-2.2s2.7-3.6,2.7-6.3c0-2.4-0.7-4.2-2-5.5s-3.3-2-5.8-2s-5,0.9-7.7,2.6v-2.7
	c3-1.5,5.7-2.2,8.1-2.2c3.1,0,5.6,0.8,7.4,2.5s2.7,3.9,2.7,6.7c0,5.3-2.5,8.7-7.6,10.1v0.1c2.7,0.3,4.9,1.3,6.6,3
	c1.6,1.8,2.5,4,2.5,6.7c0,3.4-1.2,6.2-3.6,8.3c-2.4,2.1-5.4,3.1-9.2,3.1C1076.6,318.6,1073.8,317.9,1071.1,316.5z"/>
<path class="st0" d="M1103,318.4c-0.6,0-1.1-0.2-1.6-0.6c-0.4-0.4-0.6-1-0.6-1.6s0.2-1.2,0.6-1.6s0.9-0.6,1.6-0.6
	c0.6,0,1.1,0.2,1.6,0.6s0.7,0.9,0.7,1.6c0,0.6-0.2,1.1-0.7,1.6S1103.7,318.4,1103,318.4z"/>
<path class="st0" d="M491.7,137c-4.6,2.6-9.8,3.9-15.5,3.9c-6.6,0-11.9-2.1-16-6.4c-4.1-4.3-6.1-9.9-6.1-16.9c0-7.2,2.3-13,6.8-17.6
	s10.3-6.9,17.2-6.9c5,0,9.2,0.8,12.7,2.4v6c-3.7-2.4-8.2-3.5-13.3-3.5c-5.2,0-9.4,1.8-12.7,5.3c-3.3,3.6-5,8.2-5,13.9
	c0,5.8,1.5,10.4,4.6,13.8c3.1,3.3,7.2,5,12.5,5c3.6,0,6.7-0.7,9.4-2.2v-13h-10.1v-4.9h15.5L491.7,137L491.7,137z"/>
</svg>
